<svg xmlns="http://www.w3.org/2000/svg" viewBox="0 0 512 512" id="pasta-bowl"><defs><linearGradient id="a" x1="24" x2="488" y1="256.02" y2="256.02" gradientUnits="userSpaceOnUse"><stop offset="0" stop-color="#10ccd8"></stop><stop offset="1" stop-color="#ee10fb"></stop></linearGradient></defs><path fill="url(#a)" d="M449.1,367c0-54.9-38-100.9-88.9-113.5A118.7,118.7,0,0,0,347,217.1l129-74.5h0a24.3,24.3,0,0,0,8.8-32.9,23.7,23.7,0,0,0-14.6-11.1,24.1,24.1,0,0,0-18.2,2.5L314.2,180.7c-2.5-1.8-5-3.6-7.6-5.2L435.4,71.7a24,24,0,0,0-30.1-37.4L251.6,158.2c-2.1-.2-4.3-.6-6.5-.6A116.6,116.6,0,0,0,128.6,265.5,116.5,116.5,0,0,0,61,371H24v8c0,42.5,37.9,72,72,72h51a23.9,23.9,0,0,0,22.6,32H342.4A23.9,23.9,0,0,0,365,451h51c34.1,0,72-29.5,72-72v-8H448.8C448.9,369.7,449.1,368.4,449.1,367Zm-16,0c0,1.4-.2,2.7-.2,4H416.7c.1-1.3.4-2.5.4-4,0-46.9-38.1-85.1-84.9-85.1a84.7,84.7,0,0,0-58.2,23,105.5,105.5,0,0,0-9.9-12.2,100.3,100.3,0,0,1,68.1-26.8C387.8,265.9,433.1,311.3,433.1,367Zm-48.3,4c.1-1.3.3-2.6.3-4a52.9,52.9,0,0,0-95.8-31.1,113,113,0,0,0-6.7-16.6A68.7,68.7,0,0,1,401.1,367c0,1.5-.3,2.7-.3,4ZM295,371c0-.9-.1-1.9-.2-2.9a4.3,4.3,0,0,0,.2-1.1,37.1,37.1,0,1,1,74.1,0,25.7,25.7,0,0,1-.6,4Zm-64,0a53,53,0,0,0-106,0H109c.2-37.9,31-68.8,67.6-69.1.1.1.2,0,.2.1a24,24,0,0,0,11.4,3.2,19.1,19.1,0,0,0,5.4-1,68.4,68.4,0,0,1,34.9,20.1A69.3,69.3,0,0,1,247,371Zm-90,0a37,37,0,0,1,74,0ZM243.2,221.7a52.5,52.5,0,0,0-42.6,24.6l-14.5,8.4c-2.2-.2-4.5-.2-6.7-.2a68.2,68.2,0,0,1,65.7-48.9,67.1,67.1,0,0,1,20.5,3.2ZM263,371a83.6,83.6,0,0,0-49.6-76.7l16.2-9.3a96.9,96.9,0,0,1,17.9,13.1A104.3,104.3,0,0,1,266,321.5,100.5,100.5,0,0,1,279,371Zm42.2-129.7a75.2,75.2,0,0,1,5,10.8,121.1,121.1,0,0,0-15.7,4.2,48.8,48.8,0,0,0-3.2-7Zm-27.6,16a48.3,48.3,0,0,1,2.3,5.2,115.2,115.2,0,0,0-27.4,19.1c-2.4-2-4.7-4-7.1-5.7Zm65.7-6.8a103.2,103.2,0,0,0-11.1-.6c-2,0-3.9.2-5.9.3a81.4,81.4,0,0,0-7.3-16.9l14.2-8.2A99.1,99.1,0,0,1,343.3,250.5ZM460,114.9a8.7,8.7,0,0,1,4.1-1.1,6.4,6.4,0,0,1,2,.3,7.8,7.8,0,0,1,4.9,3.6,8.4,8.4,0,0,1-3,11.1L332,207.3,191,288.5a7.6,7.6,0,0,1-7.4-.9,6.9,6.9,0,0,1-2.4-2.4,7.9,7.9,0,0,1,3-10.9l26-15a.1.1,0,0,1,.1-.1ZM415.3,46.8a8,8,0,1,1,10.1,12.4L291.1,167.5a127.1,127.1,0,0,0-18-6.1ZM245.1,173.6a101,101,0,0,1,53.8,15.9l-15.8,9.2a85.4,85.4,0,0,0-38-9.1,84.2,84.2,0,0,0-82.4,65.8,129.7,129.7,0,0,0-17.3,3.6A100.6,100.6,0,0,1,245.1,173.6ZM139.2,278h0a100.5,100.5,0,0,1,27.2-6.8,24.3,24.3,0,0,0-1.3,16.4c-40.6,6.3-72,41.2-72.1,83.5H77A100.8,100.8,0,0,1,139.2,278ZM350.4,459a8,8,0,0,1-8,8H169.6a8,8,0,0,1-8-8,8.1,8.1,0,0,1,7.9-8h173A8.1,8.1,0,0,1,350.4,459ZM416,435H96c-21.1,0-51-17-55.4-48H471.4C467,418,437.1,435,416,435Z"></path></svg>